<svg width="32" height="32" viewBox="0 0 32 32" fill="none" xmlns="http://www.w3.org/2000/svg">
<mask id="mask0_41_325" style="mask-type:luminance" maskUnits="userSpaceOnUse" x="0" y="0" width="13" height="10">
<path d="M0.62915 0H12.1607V9.45049H0.62915V0Z" fill="white"/>
</mask>
<g mask="url(#mask0_41_325)">
<path d="M12.0736 4.71741C12.0736 4.87155 12.0646 5.02568 12.0466 5.17982C12.0285 5.33333 12.0015 5.48621 11.9655 5.63721C11.9287 5.78884 11.8844 5.93859 11.8303 6.08646C11.7763 6.23433 11.7147 6.37969 11.6434 6.52255C11.5728 6.66541 11.4933 6.8045 11.4062 6.9411C11.3191 7.07706 11.2237 7.20927 11.1209 7.33771C11.018 7.46616 10.9084 7.59022 10.7906 7.70989C10.6734 7.82894 10.5496 7.9436 10.4182 8.05262C10.2875 8.16165 10.1502 8.26566 10.0075 8.3634C9.86413 8.46177 9.71548 8.55325 9.56157 8.63909C9.40767 8.72493 9.24926 8.8045 9.08635 8.87718C8.92268 8.94987 8.75602 9.01628 8.58485 9.07518C8.41368 9.13408 8.2395 9.18608 8.06232 9.23119C7.88515 9.27631 7.70572 9.31327 7.52404 9.34398C7.34311 9.37405 7.15992 9.39661 6.97599 9.41164C6.7913 9.42668 6.60662 9.4342 6.42193 9.4342C6.2365 9.4342 6.05181 9.42668 5.86788 9.41164C5.6832 9.39661 5.50076 9.37405 5.31908 9.34398C5.1374 9.31327 4.95797 9.27631 4.78079 9.23119C4.60362 9.18608 4.43019 9.13408 4.25902 9.07518C4.08785 9.01628 3.92043 8.94987 3.75752 8.87718C3.59386 8.8045 3.43545 8.72493 3.28154 8.63909C3.12764 8.55325 2.97899 8.46177 2.83635 8.3634C2.69295 8.26566 2.55632 8.16165 2.42494 8.05262C2.29431 7.9436 2.17043 7.82894 2.05256 7.70989C1.93545 7.59022 1.82509 7.46616 1.72223 7.33771C1.61938 7.20927 1.52404 7.07706 1.43695 6.9411C1.34986 6.8045 1.27103 6.66541 1.19971 6.52255C1.12914 6.37969 1.06683 6.23433 1.01277 6.08646C0.959471 5.93859 0.914426 5.78884 0.87839 5.63721C0.842354 5.48621 0.815327 5.33333 0.797309 5.17982C0.77854 5.02568 0.769531 4.87155 0.769531 4.71741C0.769531 4.56265 0.77854 4.40852 0.797309 4.25501C0.815327 4.10087 0.842354 3.94862 0.87839 3.79699C0.914426 3.64536 0.959471 3.49561 1.01277 3.34774C1.06683 3.19987 1.12914 3.05451 1.19971 2.91228C1.27103 2.76942 1.34986 2.6297 1.43695 2.49373C1.52404 2.35714 1.61938 2.22494 1.72223 2.09649C1.82509 1.96804 1.93545 1.84398 2.05256 1.72494C2.17043 1.60526 2.29431 1.49123 2.42494 1.38158C2.55632 1.27256 2.69295 1.16917 2.83635 1.0708C2.97899 0.973057 3.12764 0.880952 3.28154 0.795112C3.43545 0.709272 3.59386 0.629698 3.75752 0.557017C3.92043 0.484335 4.08785 0.418546 4.25902 0.359022C4.43019 0.300125 4.60362 0.24812 4.78079 0.203007C4.95797 0.158521 5.1374 0.120927 5.31908 0.090852C5.50076 0.0607769 5.6832 0.0382205 5.86788 0.0231829C6.05181 0.00751883 6.2365 0 6.42193 0C6.60662 0 6.7913 0.00751883 6.97599 0.0231829C7.15992 0.0382205 7.34311 0.0607769 7.52404 0.090852C7.70572 0.120927 7.88515 0.158521 8.06232 0.203007C8.2395 0.24812 8.41368 0.300125 8.58485 0.359022C8.75602 0.418546 8.92268 0.484335 9.08635 0.557017C9.24926 0.629698 9.40767 0.709272 9.56157 0.795112C9.71548 0.880952 9.86413 0.973057 10.0075 1.0708C10.1502 1.16917 10.2875 1.27256 10.4182 1.38158C10.5496 1.49123 10.6734 1.60526 10.7906 1.72494C10.9084 1.84398 11.018 1.96804 11.1209 2.09649C11.2237 2.22494 11.3191 2.35714 11.4062 2.49373C11.4933 2.6297 11.5728 2.76942 11.6434 2.91228C11.7147 3.05451 11.7763 3.19987 11.8303 3.34774C11.8844 3.49561 11.9287 3.64536 11.9655 3.79699C12.0015 3.94862 12.0285 4.10087 12.0466 4.25501C12.0646 4.40852 12.0736 4.56265 12.0736 4.71741Z" fill="#1D2D3D"/>
</g>
<mask id="mask1_41_325" style="mask-type:luminance" maskUnits="userSpaceOnUse" x="19" y="22" width="13" height="10">
<path d="M19.8484 22.6035H31.3799V32.0001H19.8484V22.6035Z" fill="white"/>
</mask>
<g mask="url(#mask1_41_325)">
<path d="M31.2484 27.3356C31.2484 27.4897 31.2394 27.6438 31.2214 27.798C31.2033 27.9515 31.1763 28.1044 31.1403 28.256C31.1042 28.407 31.0592 28.5568 31.0051 28.7046C30.9518 28.8525 30.8895 28.9979 30.8182 29.1407C30.7476 29.2836 30.6688 29.4227 30.581 29.5593C30.4939 29.6952 30.3985 29.8274 30.2957 29.9559C30.1936 30.0843 30.0832 30.2084 29.9654 30.3281C29.8482 30.4471 29.7244 30.5618 29.593 30.6708C29.4624 30.7804 29.325 30.8838 29.1823 30.9816C29.0389 31.0799 28.8903 31.1714 28.7364 31.2573C28.5825 31.3431 28.4241 31.4227 28.2612 31.4953C28.0975 31.5687 27.9308 31.6344 27.7597 31.6933C27.5885 31.7529 27.4143 31.8042 27.2371 31.8494C27.06 31.8945 26.8805 31.9314 26.6996 31.9621C26.5179 31.9922 26.3347 32.0148 26.1508 32.0298C25.9661 32.0448 25.7814 32.0524 25.5967 32.0524C25.4113 32.0524 25.2266 32.0448 25.0427 32.0298C24.8588 32.0148 24.6756 31.9922 24.4939 31.9621C24.3122 31.9314 24.1328 31.8945 23.9556 31.8494C23.7784 31.8042 23.605 31.7529 23.4338 31.6933C23.2627 31.6344 23.0952 31.5687 22.9323 31.4953C22.7687 31.4227 22.6103 31.3431 22.4563 31.2573C22.3024 31.1714 22.1538 31.0799 22.0112 30.9816C21.8678 30.8838 21.7311 30.7804 21.5997 30.6708C21.4691 30.5618 21.3452 30.4471 21.2274 30.3281C21.1103 30.2084 20.9999 30.0843 20.897 29.9559C20.7942 29.8274 20.6996 29.6952 20.6118 29.5593C20.5247 29.4227 20.4458 29.2836 20.3745 29.1407C20.3039 28.9979 20.2416 28.8525 20.1883 28.7046C20.1343 28.5568 20.0892 28.407 20.0532 28.256C20.0172 28.1044 19.9901 27.9515 19.9721 27.798C19.9533 27.6438 19.9443 27.4897 19.9443 27.3356C19.9443 27.1808 19.9533 27.0267 19.9721 26.8732C19.9901 26.719 20.0172 26.5668 20.0532 26.4152C20.0892 26.2635 20.1343 26.1138 20.1883 25.9659C20.2416 25.818 20.3039 25.6733 20.3745 25.5304C20.4458 25.3876 20.5247 25.2479 20.6118 25.1119C20.6996 24.9753 20.7942 24.8431 20.897 24.7147C20.9999 24.5862 21.1103 24.4621 21.2274 24.3431C21.3452 24.2234 21.4691 24.1094 21.5997 23.9997C21.7311 23.8907 21.8678 23.7873 22.0112 23.689C22.1538 23.5912 22.3024 23.4991 22.4563 23.4133C22.6103 23.3274 22.7687 23.2485 22.9323 23.1752C23.0952 23.1025 23.2627 23.0367 23.4338 22.9772C23.605 22.9183 23.7784 22.8663 23.9556 22.8218C24.1328 22.7767 24.3122 22.7391 24.4939 22.709C24.6756 22.6789 24.8588 22.6564 25.0427 22.6413C25.2266 22.6257 25.4113 22.6182 25.5967 22.6182C25.7814 22.6182 25.9661 22.6257 26.1508 22.6413C26.3347 22.6564 26.5179 22.6789 26.6996 22.709C26.8805 22.7391 27.06 22.7767 27.2371 22.8218C27.4143 22.8663 27.5885 22.9183 27.7597 22.9772C27.9308 23.0367 28.0975 23.1025 28.2612 23.1752C28.4241 23.2485 28.5825 23.3274 28.7364 23.4133C28.8903 23.4991 29.0389 23.5912 29.1823 23.689C29.325 23.7873 29.4624 23.8907 29.593 23.9997C29.7244 24.1094 29.8482 24.2234 29.9654 24.3431C30.0832 24.4621 30.1936 24.5862 30.2957 24.7147C30.3985 24.8431 30.4939 24.9753 30.581 25.1119C30.6688 25.2479 30.7476 25.3876 30.8182 25.5304C30.8895 25.6733 30.9518 25.818 31.0051 25.9659C31.0592 26.1138 31.1035 26.2635 31.1403 26.4152C31.1763 26.5668 31.2033 26.719 31.2214 26.8732C31.2394 27.0267 31.2484 27.1808 31.2484 27.3356Z" fill="#1D2D3D"/>
</g>
<mask id="mask2_41_325" style="mask-type:luminance" maskUnits="userSpaceOnUse" x="0" y="0" width="32" height="23">
<path d="M0 0.147461H32V22.1224H0V0.147461Z" fill="white"/>
</mask>
<g mask="url(#mask2_41_325)">
<path d="M0.00830078 15.7893V22.043L32.0128 6.4497V0.199707L0.00830078 15.7893Z" fill="#1D2D3D"/>
</g>
<mask id="mask3_41_325" style="mask-type:luminance" maskUnits="userSpaceOnUse" x="0" y="9" width="32" height="23">
<path d="M0 9.93164H32V31.9066H0V9.93164Z" fill="white"/>
</mask>
<g mask="url(#mask3_41_325)">
<path d="M0.00830078 31.8622L32.0128 16.2688V10.022L0.00830078 25.6122V31.8622Z" fill="#1D2D3D"/>
</g>
</svg>
