<svg width="32" height="32" viewBox="0 0 32 32" fill="none" xmlns="http://www.w3.org/2000/svg">
<path d="M22.667 2.6665H9.33366C5.65366 2.6665 2.66699 5.65317 2.66699 9.33317V22.6665C2.66699 26.3465 5.65366 29.3332 9.33366 29.3332H22.667C26.347 29.3332 29.3337 26.3465 29.3337 22.6665V9.33317C29.3337 5.65317 26.347 2.6665 22.667 2.6665ZM16.0003 22.6665C12.3203 22.6665 9.33366 19.6798 9.33366 15.9998C9.33366 12.3198 12.3203 9.33317 16.0003 9.33317C19.6803 9.33317 22.667 12.3198 22.667 15.9998C22.667 19.6798 19.6803 22.6665 16.0003 22.6665ZM23.1337 10.1598C22.4003 10.1598 21.8003 9.55984 21.8003 8.8265C21.8003 8.09317 22.4003 7.49317 23.1337 7.49317C23.867 7.49317 24.467 8.09317 24.467 8.8265C24.467 9.55984 23.867 10.1598 23.1337 10.1598Z" fill="white"/>
<path d="M16 20C18.2091 20 20 18.2091 20 16C20 13.7909 18.2091 12 16 12C13.7909 12 12 13.7909 12 16C12 18.2091 13.7909 20 16 20Z" fill="white"/>
</svg>
