<svg width="32" height="32" viewBox="0 0 32 32" fill="none" xmlns="http://www.w3.org/2000/svg">
<path d="M22.667 2.66699H9.33366C5.65366 2.66699 2.66699 5.65366 2.66699 9.33366V22.667C2.66699 26.347 5.65366 29.3337 9.33366 29.3337H22.667C26.347 29.3337 29.3337 26.347 29.3337 22.667V9.33366C29.3337 5.65366 26.347 2.66699 22.667 2.66699ZM16.0003 22.667C12.3203 22.667 9.33366 19.6803 9.33366 16.0003C9.33366 12.3203 12.3203 9.33366 16.0003 9.33366C19.6803 9.33366 22.667 12.3203 22.667 16.0003C22.667 19.6803 19.6803 22.667 16.0003 22.667ZM23.1337 10.1603C22.4003 10.1603 21.8003 9.56033 21.8003 8.82699C21.8003 8.09366 22.4003 7.49366 23.1337 7.49366C23.867 7.49366 24.467 8.09366 24.467 8.82699C24.467 9.56033 23.867 10.1603 23.1337 10.1603Z" fill="#283D52"/>
<path d="M16 20C18.2091 20 20 18.2091 20 16C20 13.7909 18.2091 12 16 12C13.7909 12 12 13.7909 12 16C12 18.2091 13.7909 20 16 20Z" fill="#283D52"/>
</svg>
