<svg width="24" height="24" viewBox="0 0 24 24" fill="none" xmlns="http://www.w3.org/2000/svg">
<path d="M12 0C9.62663 0 7.30655 0.703788 5.33316 2.02236C3.35977 3.34094 1.8217 5.21509 0.913451 7.4078C0.00519945 9.60051 -0.232441 12.0133 0.230582 14.3411C0.693605 16.6689 1.83649 18.8071 3.51472 20.4853C5.19295 22.1635 7.33115 23.3064 9.65892 23.7694C11.9867 24.2324 14.3995 23.9948 16.5922 23.0866C18.7849 22.1783 20.6591 20.6402 21.9776 18.6668C23.2962 16.6935 24 14.3734 24 12C24 8.8174 22.7357 5.76516 20.4853 3.51472C18.2349 1.26428 15.1826 0 12 0ZM16.335 16.4359C16.24 16.5983 16.0843 16.7164 15.9023 16.7642C15.7203 16.812 15.5267 16.7857 15.3641 16.6909C13.4973 15.6 11.3414 15.4255 9.86046 15.4636C8.8985 15.4883 7.94183 15.6144 7.00637 15.84C6.83221 15.8708 6.65281 15.8356 6.50326 15.7412C6.35371 15.6467 6.24475 15.4999 6.19769 15.3294C6.15064 15.1589 6.16887 14.977 6.24882 14.8193C6.32877 14.6615 6.46469 14.5392 6.63001 14.4764C7.66059 14.2202 8.71576 14.0757 9.77728 14.0455C10.7932 14.0079 11.8101 14.0816 12.81 14.265C13.9611 14.4734 15.068 14.8774 16.0827 15.4595C16.1638 15.5067 16.2347 15.5695 16.2913 15.6442C16.348 15.719 16.3892 15.8043 16.4127 15.8951C16.4362 15.9859 16.4414 16.0804 16.428 16.1733C16.4147 16.2661 16.3831 16.3554 16.335 16.4359ZM17.655 13.6936C17.581 13.8207 17.4749 13.9262 17.3474 13.9994C17.2198 14.0726 17.0753 14.1111 16.9282 14.1109C16.779 14.1111 16.6325 14.0711 16.5041 13.995C14.2936 12.7036 11.7409 12.495 9.98592 12.5495C8.84657 12.5792 7.71351 12.7286 6.60546 12.9955C6.39353 13.0453 6.17051 13.0111 5.98327 12.9C5.79604 12.7889 5.65917 12.6095 5.60143 12.3996C5.5437 12.1897 5.56959 11.9655 5.67367 11.7743C5.77775 11.583 5.95191 11.4396 6.15955 11.3741C7.38045 11.072 8.63045 10.9028 9.88773 10.8695C11.0914 10.8239 12.2964 10.9112 13.4809 11.13C14.8432 11.377 16.1531 11.8557 17.3536 12.5455C17.5455 12.6581 17.6849 12.8422 17.7413 13.0573C17.7978 13.2725 17.7668 13.5013 17.655 13.6936ZM19.3582 10.6936C19.2674 10.8493 19.1374 10.9784 18.9812 11.0681C18.8249 11.1578 18.6479 11.205 18.4677 11.205C18.285 11.207 18.1051 11.1599 17.9468 11.0686C12.6914 7.99773 5.87455 9.82364 5.81046 9.84136C5.67798 9.88333 5.5384 9.89811 5.40007 9.88483C5.26175 9.87154 5.12753 9.83047 5.00546 9.76406C4.88339 9.69765 4.77598 9.60728 4.68968 9.49837C4.60338 9.38945 4.53995 9.26423 4.50321 9.13022C4.46647 8.9962 4.45716 8.85614 4.47585 8.71844C4.49454 8.58074 4.54085 8.44823 4.61198 8.32886C4.68312 8.20948 4.77762 8.1057 4.88983 8.02373C5.00204 7.94176 5.12965 7.88328 5.26501 7.85182C6.76039 7.48 8.29152 7.27061 9.83182 7.22727C11.3077 7.17227 12.7852 7.27927 14.2377 7.54636C15.9084 7.84613 17.5153 8.43004 18.9886 9.27273C19.1068 9.34061 19.2104 9.43126 19.2933 9.53943C19.3762 9.64759 19.4369 9.77113 19.4718 9.90289C19.5066 10.0347 19.515 10.172 19.4965 10.307C19.4779 10.4421 19.4328 10.5721 19.3636 10.6895L19.3582 10.6936Z" fill="white"/>
</svg>
