<svg width="32" height="32" viewBox="0 0 32 32" fill="none" xmlns="http://www.w3.org/2000/svg">
<path d="M30.7527 6.93321C29.5976 5.5601 27.465 5 23.3921 5H8.60759C4.4415 5 2.27272 5.59623 1.12196 7.05812C0 8.48346 0 10.5836 0 13.4902V19.0302C0 24.6613 1.3312 27.5204 8.60759 27.5204H23.3922C26.9242 27.5204 28.8813 27.0261 30.1475 25.8143C31.446 24.5717 32 22.5428 32 19.0302V13.4902C32 10.4249 31.9132 8.31241 30.7527 6.93321ZM20.5441 17.0251L13.8305 20.5338C13.6804 20.6123 13.5163 20.6512 13.3524 20.6512C13.1668 20.6512 12.9816 20.6012 12.8175 20.5019C12.5087 20.3148 12.3201 19.98 12.3201 19.6189V12.6239C12.3201 12.2635 12.5082 11.929 12.8164 11.7418C13.1247 11.5545 13.5082 11.5417 13.8281 11.7079L20.5417 15.1941C20.8833 15.3714 21.0978 15.724 21.0983 16.1087C21.0987 16.4938 20.8852 16.8469 20.5441 17.0251Z" fill="#283D52"/>
</svg>
